<?xml version="1.0" encoding="UTF-8" standalone="no"?><!DOCTYPE svg PUBLIC "-//W3C//DTD SVG 1.1//EN" "http://www.w3.org/Graphics/SVG/1.1/DTD/svg11.dtd"><svg width="100%" height="100%" viewBox="0 0 2084 2084" version="1.1" xmlns="http://www.w3.org/2000/svg" xmlns:xlink="http://www.w3.org/1999/xlink" xml:space="preserve" xmlns:serif="http://www.serif.com/" style="fill-rule:evenodd;clip-rule:evenodd;stroke-linejoin:round;stroke-miterlimit:2;"><g id="_1642311164864"><path d="M403.568,547.434l140.205,20.26l20.721,-37.792c69.867,1.876 232.227,65.805 285.214,99.043c-71.652,21.744 -113.245,50.71 -151.96,138.009c400.145,182.199 492.939,242.868 860.126,920.243c64.431,-36.056 20.36,-8.084 94.951,-51.041c-13.319,-207.875 -132.693,-435.258 -241.144,-598.521l-87.749,-119.634c-183.624,-224.766 -441.156,-393.836 -746.49,-455.609l-0.933,-47.18l-150.455,-19.758l-22.496,151.96l0.01,0.02Z" style="fill:#8a0986;"/><path d="M76.77,848.525l146.253,-5.195c4.463,-8.475 -0.822,-0.903 5.155,-16.971c11.846,-31.834 -9.638,18.756 5.868,-16.188c1.163,-2.617 3.49,-6.338 4.543,-8.555c1.104,-2.317 3.21,-5.937 5.115,-8.716c135.953,3.912 221.456,31.102 339.575,70.419c-41.894,42.576 -60.489,84.44 -97.929,212.609c352.463,75.604 870.306,410.345 998.625,778.615c114.309,-106.305 -169.872,-497.714 -244.122,-593.627c-231.556,-299.116 -621.409,-518.856 -1006.49,-531.203c-0.562,-1.143 -6.71,-16.86 -6.71,-16.86l-13.991,-23.539l-140.145,5.576l4.262,153.625l-0.01,0.01Z" style="fill:#4a078a;"/><path d="M897.269,363.58l125.23,66.687l35.656,-27.06c80.96,50.178 169.251,96.375 221.576,157.376c-84.049,-17.873 -164.206,-14.934 -240.492,8.575c131.83,95.162 389.643,265.556 585.674,720.543c66.215,153.705 92.674,236.991 98.531,337.017c50.449,-27.321 65.303,-40.459 95.483,-63.006c16.85,-263.279 -126.725,-563.307 -233.913,-741.164c-114.097,-189.33 -299.476,-371.359 -501.875,-476.851l16.378,-43.95l-132.773,-72.956l-69.475,134.769l-0,0.02Z" style="fill:#fe0103;"/><path d="M220.385,1228.23l147.336,8.565l20.862,-46.357l90.518,15.165c40.159,76.837 25.486,87.088 90.608,145.771c44.552,40.149 106.977,49.778 181.046,57.47c50.75,64.822 62.987,123.285 176.172,124.218c132.131,1.083 126.685,-6.459 256.288,18.736c-69.796,-83.417 -239.388,-209.43 -341.44,-265.506c-133.084,-73.127 -277.712,-134.528 -453.182,-159.232l-12.075,-44.311l-142.984,-7.652l-13.129,153.133l-0.02,-0Z" style="fill:#01bab2;"/><path d="M1874.98,1431.56c160.986,-65.865 186.552,-331.983 35.214,-489.479c-41.844,-43.539 -86.907,-38.073 -107.268,-68.633c-39.807,-59.727 -85.814,-208.237 -290.299,-261.665c152.411,201.156 337.94,479.138 362.353,819.777Z" style="fill:#fd8601;"/><path d="M336.871,1119.69l-68.733,-4.301l-4.582,73.216l68.734,4.3l4.581,-73.215Z" style="fill:#fefefe;"/><path d="M185.771,730.211l-68.827,2.392l2.549,73.314l68.826,-2.392l-2.548,-73.314Z" style="fill:#fefefe;"/><path d="M527.131,451.145l-67.993,-10.947l-11.661,72.426l67.993,10.947l11.661,-72.426Z" style="fill:#fefefe;"/><path d="M1044.1,309.489l-62.683,-28.525l-30.385,66.769l62.683,28.526l30.385,-66.77Z" style="fill:#fefefe;"/></g></svg>